<svg width="251" height="99" viewBox="0 0 251 99" fill="none" xmlns="http://www.w3.org/2000/svg">
<path fill-rule="evenodd" clip-rule="evenodd" d="M170.707 98.7625H182.852L131.573 65.6959L182.852 32.6294H170.707L125.5 61.647L80.293 32.6294H68.1478L119.427 65.6959L68.1478 98.7625H80.293L125.5 69.7449L170.707 98.7625Z" fill="white"/>
<path d="M11.4704 10.3602L19.5672 2.9371V13.7343H22.9409V0.237793H20.2419L11.4704 8.33572L2.69892 0.237793H0V13.7343H3.37366V2.9371L11.4704 10.3602ZM25.6398 11.7099L27.664 13.7343H41.1586L43.8575 11.7099V4.28676L41.1586 2.26227H27.664L25.6398 4.28676V11.7099ZM40.4839 11.7099H28.3387V4.28676H40.4839V11.7099ZM47.2312 18.4581H50.6048V13.7343H62.0753L64.7742 11.7099V4.28676L62.75 2.26227H53.3038L50.6048 4.28676H62.0753V11.7099H50.6048V2.26227H47.2312V18.4581ZM69.4973 13.7343H82.9919L85.6909 11.7099H70.8468V4.28676H82.3172V6.98606H70.8468L72.871 9.01055H82.9919L85.6909 6.98606V4.28676L82.9919 2.26227H70.172L67.4731 4.28676V11.7099L69.4973 13.7343ZM89.0645 0.237793V13.7343H91.7634V2.26227H103.234V13.7343H106.608V0.237793H89.0645ZM109.981 11.7099L112.68 13.7343H126.175L128.199 11.7099V4.28676L126.175 2.26227H112.68L109.981 4.28676V11.7099ZM125.5 11.7099H113.355V4.28676H125.5V11.7099ZM145.742 2.26227H132.922L130.223 4.28676H137.645V13.7343H140.344V4.28676H147.766L145.742 2.26227ZM149.79 11.7099L152.489 13.7343H165.309L168.008 11.7099V4.28676L165.309 2.26227H152.489L149.79 4.28676V11.7099ZM165.309 11.7099H152.489V4.28676H165.309V11.7099ZM174.081 13.7343L180.153 4.28676L186.226 13.7343H189.599L182.177 2.26227H178.129L171.382 13.7343H174.081ZM194.323 13.7343H197.021V2.26227H194.323V13.7343ZM205.793 2.26227L197.021 7.66089L205.793 13.7343H209.841L201.07 7.66089L209.841 2.26227H205.793ZM211.866 11.7099L213.89 13.7343H227.384L230.083 11.7099V4.28676L227.384 2.26227H213.89L211.866 4.28676V11.7099ZM226.71 11.7099H214.565V4.28676H226.71V11.7099ZM248.301 2.26227H232.782V13.7343H248.301L251 11.7099V9.01055L249.651 7.66089L251 6.98606V4.28676L248.301 2.26227ZM236.156 11.7099V9.01055H247.626V11.7099H236.156ZM247.626 6.98606H236.156V4.28676H247.626V6.98606Z" fill="white"/>
<path d="M35.086 67.0457H42.5081V69.745H33.7366L35.086 71.0947H43.1828L44.5323 69.745V67.0457L43.1828 65.696H35.7608V63.6716H44.5323L43.1828 62.3219H35.086L33.7366 63.6716V65.696L35.086 67.0457ZM50.6049 71.0947H55.328V69.745H50.6049V63.6716H54.6532L53.3038 62.3219H50.6049V60.9723H49.2554V62.3219H47.2312V63.6716H49.2554V69.745L50.6049 71.0947ZM59.3764 71.0947H65.4489L66.7984 69.745H60.0511V62.3219H58.0269V69.745L59.3764 71.0947ZM66.7984 71.0947H68.8226V62.3219H66.7984V71.0947ZM80.293 69.745H72.871V63.6716H80.293V71.0947H82.3172V58.2729H80.293V62.3219H72.1963L70.8468 63.6716V69.745L72.1963 71.0947H78.9436L80.293 69.745ZM84.3414 71.0947H85.6909V62.3219H84.3414V71.0947ZM85.6909 58.9478H84.3414V60.2974V60.9723H85.6909V60.2974V58.9478ZM88.3898 69.745L89.7393 71.0947H97.836L99.1855 69.745V63.6716L97.836 62.3219H89.7393L88.3898 63.6716V69.745ZM97.836 69.745H90.414V63.6716H97.836V69.745ZM158.562 69.745H151.14V63.6716H158.562V71.0947H160.586V58.2729H158.562V62.3219H150.465L149.116 63.6716V69.745L150.465 71.0947H157.212L158.562 69.745ZM164.634 71.0947H172.731L174.081 69.745H165.309V63.6716H172.056V65.696H165.309L166.659 67.0457H172.731L174.081 65.696V63.6716L172.731 62.3219H164.634L163.285 63.6716V69.745L164.634 71.0947ZM178.129 67.0457H185.551V69.745H176.78L178.129 71.0947H185.551L187.575 69.745V67.0457L185.551 65.696H178.129V63.6716H187.575L185.551 62.3219H178.129L176.78 63.6716V65.696L178.129 67.0457ZM188.925 71.0947H190.949V62.3219H188.925V71.0947ZM190.274 58.9478H188.925V60.2974V60.9723H190.274L190.949 60.2974V58.9478H190.274ZM194.997 71.0947H201.745V73.1191H193.648L194.997 74.4688H202.419L203.769 73.1191V62.3219H201.745V69.745H194.997V63.6716H201.745L200.395 62.3219H194.997L193.648 63.6716V69.745L194.997 71.0947ZM207.817 63.6716H214.565V71.0947H216.589V63.6716L215.239 62.3219H209.841L207.817 63.6716ZM205.793 71.0947H207.817V62.3219H205.793V71.0947Z" fill="white"/>
</svg>
