<svg width="183" height="61" viewBox="0 0 183 61" fill="none" xmlns="http://www.w3.org/2000/svg">
<g clip-path="url(#clip0_4_35)">
<path fill-rule="evenodd" clip-rule="evenodd" d="M85.8611 30.3481C85.5318 30.8314 82.2802 32.7644 81.4982 33.2752L71.1671 39.9303C68.4368 41.6148 65.8437 43.5339 63.0723 45.1632L54.9638 50.4099C54.4288 50.7137 54.0172 51.045 53.4821 51.3626C51.479 52.5362 49.5856 53.9583 47.5963 55.1734L46.8691 55.6566C46.6221 55.8361 46.3477 55.988 46.1145 56.1261L44.8111 56.9545C44.6739 57.0373 44.8111 56.9407 44.6327 57.065C44.4407 57.203 44.5093 57.1754 44.276 57.3135C44.0702 57.4239 44.0565 57.4378 43.9056 57.5482L39.1173 60.6548C38.7195 60.8895 38.8704 60.6686 38.7606 61H38.9115H39.0625H39.2271H39.378H39.5289H39.6799H39.8445H39.9954H40.1463H40.2973H40.4619H40.6128H40.7637H40.9146H41.0793H41.2302H41.3811H41.532H41.6967H41.8476H41.9985H42.1494H42.3141H42.465H42.6159H42.7668H42.9315H43.0824H43.2333H43.3842H43.5489H43.6998H43.8507H44.0154H44.1663H44.3172H44.4681H44.6327H44.7837H44.9346H45.0855H45.2501H45.4011H45.552H45.7029H45.8675H46.0185H46.1694H46.3203H46.4849H46.6359H46.7868H46.9377H47.1023H47.2533H47.4042H47.5551H47.7197H47.8707H48.0216H48.1725H48.3371H48.488H48.639H48.7213C50.4088 61 50.2716 60.9448 51.4516 60.1716C51.7397 59.9783 51.9317 59.8402 52.2336 59.6331L71.8942 46.9581C72.1824 46.7648 72.3881 46.6544 72.6488 46.4887L73.2113 46.1435C73.2388 46.1297 73.3211 46.0745 73.3485 46.0607L80.2771 41.5733C80.6201 41.38 80.7161 41.2972 80.9905 41.0901L90.1554 35.1806C90.4024 35.0425 90.7043 34.8907 90.9238 34.725C91.1021 34.6007 91.0198 34.6145 91.2668 34.4765C91.4863 34.3522 91.5274 34.3246 91.7058 34.2003L96.9331 37.5693C98.7167 38.7153 100.473 39.9303 102.298 41.0072C102.805 41.311 103.299 41.7114 103.807 42.0152C104.095 42.1808 104.26 42.2913 104.561 42.4846L109.844 45.895C110.118 46.0745 110.31 46.1849 110.584 46.3644L112.862 47.828C113.123 48.0351 113.328 48.1317 113.589 48.3112L118.94 51.763C119.187 51.9287 119.393 52.0806 119.667 52.2463C119.941 52.4258 120.12 52.5224 120.408 52.7157C120.943 53.0747 121.451 53.3508 121.958 53.696L123.44 54.6487C123.975 55.0077 124.442 55.2838 124.963 55.6428L130.259 59.0532C130.369 59.1222 130.492 59.2189 130.616 59.3017C131.109 59.6193 132.989 60.9448 133.359 61H133.373H144.651C144.582 60.7791 144.596 60.8343 144.445 60.71C144.281 60.5858 144.212 60.5858 144.047 60.4891L125.608 48.6012C125.1 48.256 124.661 47.9937 124.14 47.6485L120.476 45.246C118.858 44.2105 113.383 40.8139 112.354 40.0131L98.0032 30.7485C97.7837 30.6105 97.8386 30.6105 97.5505 30.5552C97.9758 29.9063 99.3615 29.3126 100.061 28.8017L104.109 26.1922C104.356 26.0403 104.63 25.916 104.877 25.7365L121.094 15.2569C122.123 14.6632 123.001 13.9728 124.044 13.3653C125.196 12.7026 126.582 11.6532 127.707 10.9629L139.533 3.36894C139.822 3.17564 139.972 3.0928 140.274 2.8995C140.576 2.72001 140.741 2.59574 141.029 2.43006C141.29 2.27818 141.495 2.07107 141.729 1.933C141.989 1.76732 142.209 1.65686 142.497 1.47737L143.951 0.510865C144.212 0.331372 144.486 0.234722 144.651 0H133.058C132.619 0.138072 132.152 0.5799 131.768 0.828429C131.315 1.13219 130.945 1.38072 130.465 1.65686C129.984 1.933 129.641 2.18153 129.189 2.49909L124.016 5.82662C123.769 5.9923 123.632 6.06134 123.399 6.21322C123.152 6.3789 122.987 6.48936 122.727 6.65505L117.568 9.98257C117.115 10.3001 116.758 10.5487 116.278 10.8248C116.059 10.9491 115.853 11.0733 115.647 11.1976L114.989 11.6532C114.755 11.7913 114.604 11.9156 114.385 12.0536C114.124 12.2193 113.932 12.3298 113.699 12.4817L101.776 20.1722C100.281 21.2768 95.9315 23.9692 94.3263 24.9633L91.7058 26.6892L57.5295 4.65301C57.2962 4.48732 57.1316 4.37687 56.8709 4.19737C56.4044 3.89362 56.034 3.6727 55.5812 3.36894L55.2382 3.14803C55.2108 3.13422 55.1971 3.12042 55.1834 3.10661L50.354 0H38.7606C38.9253 0.220914 39.1173 0.317564 39.3917 0.469443C39.6936 0.635129 39.8445 0.759393 40.1326 0.952693L53.4135 9.51313C53.9349 9.80308 54.3876 10.1483 54.8678 10.4796L62.2628 15.2293C62.4961 15.3812 62.6882 15.4916 62.9488 15.6435L66.6395 18.0183C66.9139 18.2116 67.0785 18.3221 67.3529 18.5154C67.6411 18.7087 67.8469 18.8053 68.1075 18.9848C68.3682 19.1505 68.5466 19.2748 68.8484 19.4543L76.9432 24.701C78.1917 25.419 85.2437 30.21 85.8611 30.3481Z" fill="white"/>
<path fill-rule="evenodd" clip-rule="evenodd" d="M163.214 28.6222H169.059V33.8965H163.214V28.6222ZM161.403 28.4151V34.1036C161.993 34.2693 162.446 35.3187 162.912 35.3187H169.059V37.2517H161.705C161.801 37.6245 162.075 37.7763 162.336 38.0387C162.514 38.2182 162.83 38.6738 163.118 38.6738H169.47C169.717 38.6738 170.883 37.5002 170.883 37.2517V27.2001H169.059V28.4151C168.743 28.208 167.961 27.2001 167.646 27.2001H162.912C162.446 27.2001 162.007 28.2494 161.403 28.4151Z" fill="white"/>
<path fill-rule="evenodd" clip-rule="evenodd" d="M122.877 28.6222H129.628V33.8965H122.877V28.6222ZM129.628 27.2001H122.562C122.288 27.2001 122.013 27.6005 121.835 27.78C121.588 28.0423 121.437 28.3185 121.053 28.4151V34.1037C121.409 34.2003 121.547 34.435 121.794 34.6836C121.972 34.8769 122.288 35.3187 122.562 35.3187H128.215C128.53 35.3187 129.312 34.3108 129.628 34.1037V35.3187H131.439V23.7483H129.628V27.2001Z" fill="white"/>
<path fill-rule="evenodd" clip-rule="evenodd" d="M35.8383 28.6222H42.5885V33.8965H35.8383V28.6222ZM42.5885 27.2001H35.4267C35.1249 27.2001 34.5761 27.918 34.3428 28.139C33.8627 28.6084 34.0136 28.6774 34.0136 29.9477C34.0136 31.3284 34.0136 32.7091 34.0136 34.1037C34.6172 34.2693 35.07 35.3187 35.5365 35.3187H41.0793C41.5321 35.3187 41.9711 34.2693 42.5885 34.1037V35.3187H44.3035V23.7483H42.5885V27.2001Z" fill="white"/>
<path fill-rule="evenodd" clip-rule="evenodd" d="M135.884 28.6222H142.14V30.5552H135.884V28.6222ZM134.059 28.7189V33.7999C134.059 34.0484 135.321 35.3187 135.582 35.3187H142.442C142.703 35.3187 143.759 34.2279 143.855 33.8965H135.884V30.7485L137.105 31.9497L142.538 31.9773C142.785 31.8117 143.855 30.859 143.855 30.5552C143.855 28.2356 144.034 28.7603 143.169 27.8904C142.977 27.6971 142.62 27.2001 142.332 27.2001H135.582C135.321 27.2001 134.059 28.4703 134.059 28.7189Z" fill="white"/>
<path fill-rule="evenodd" clip-rule="evenodd" d="M0.0292756 28.4151C0.0292756 28.8293 0.0292756 29.2297 0.0292756 29.6301C0.0292756 30.2929 -0.149083 30.5552 0.879911 31.3284C1.11315 31.4941 1.42871 31.8669 1.64823 31.8669H8.30239V33.8965H0.0292756C0.125315 34.1589 0.331114 34.2693 0.756431 34.6835C0.93479 34.8492 1.46987 35.3187 1.64823 35.3187H8.49447C8.85118 35.3187 9.67438 34.2279 10.1134 34.1036C10.1134 31.8945 10.4015 31.8669 9.24906 31.0247C9.01582 30.8452 8.7963 30.4448 8.49447 30.4448H1.84031V28.6222H10.0174C9.8939 28.1528 9.66066 28.208 9.33138 27.8904C9.12558 27.6971 8.7963 27.2001 8.49447 27.2001H1.64823C1.38755 27.2001 0.97595 27.6143 0.811311 27.78C0.564352 28.0423 0.399713 28.3185 0.0292756 28.4151Z" fill="white"/>
<path fill-rule="evenodd" clip-rule="evenodd" d="M146.064 28.4151C146.064 30.8175 145.858 30.2929 146.75 31.1903C146.942 31.3698 147.299 31.8669 147.573 31.8669H154.337V33.8965H146.064C146.201 34.4074 146.146 34.0346 146.75 34.6283C146.942 34.8216 147.299 35.3187 147.573 35.3187H154.543C154.859 35.3187 155.229 34.6559 156.052 34.1036V31.6736C153.555 30.1962 157.657 30.4448 147.779 30.4448V28.6222H156.052C155.942 28.3323 154.708 27.2001 154.433 27.2001H147.573C147.258 27.2001 146.887 27.8628 146.064 28.4151Z" fill="white"/>
<path fill-rule="evenodd" clip-rule="evenodd" d="M51.9729 28.6222H58.5311V33.8965H51.9729V28.6222ZM50.2579 28.4151V33.8965C50.2579 34.2693 50.697 34.3936 50.9439 34.6283C51.1909 34.8907 51.383 35.1254 51.6711 35.3187C51.7397 35.3463 58.4899 35.4015 58.8878 35.2635C59.2445 35.1392 59.464 34.5179 60.246 34.1036V28.4151C59.903 28.1942 59.807 28.139 59.5052 27.8352C59.3268 27.6419 59.0112 27.2001 58.7231 27.2001H51.7671C51.4379 27.2001 51.1909 27.7247 50.7244 28.0699L50.2579 28.4151Z" fill="white"/>
<path fill-rule="evenodd" clip-rule="evenodd" d="M173.092 35.3187H174.917V28.6222H181.16V35.3187H182.984C182.71 34.7664 182.875 29.6439 182.875 28.5256C182.861 28.4565 181.585 27.2001 181.366 27.2001H176.426C176.097 27.2001 175.795 27.7247 175.493 27.9871L175.315 28.1113C175.15 28.2356 175.068 28.3046 174.917 28.4151V27.2001H173.092V35.3187Z" fill="white"/>
<path fill-rule="evenodd" clip-rule="evenodd" d="M14.0511 27.2001H12.2263V28.6222H14.0511V33.7999C14.0511 34.0899 14.545 34.4488 14.7233 34.6421C14.9154 34.8216 15.2721 35.3187 15.5603 35.3187H19.69V33.8966H15.8621V28.6222H19.4979C19.4018 28.2909 18.3454 27.2001 18.0847 27.2001H15.8621V25.778H14.0511V27.2001Z" fill="white"/>
<path fill-rule="evenodd" clip-rule="evenodd" d="M22.2144 33.7999C22.2144 34.0484 23.4766 35.3187 23.7235 35.3187H29.0743C29.3624 35.3187 29.678 34.8768 29.8564 34.6835C30.117 34.435 30.3914 34.2831 30.4875 33.8965H24.0391V27.2001H22.2144V33.7999Z" fill="white"/>
<path fill-rule="evenodd" clip-rule="evenodd" d="M46.1145 35.3187H47.9393V27.2001H46.1145V35.3187Z" fill="white"/>
<path fill-rule="evenodd" clip-rule="evenodd" d="M157.369 35.3187H159.18V27.2001H157.369V35.3187Z" fill="white"/>
<path fill-rule="evenodd" clip-rule="evenodd" d="M30.5835 35.3187H32.2985V27.2001H30.5835V35.3187Z" fill="white"/>
<path fill-rule="evenodd" clip-rule="evenodd" d="M157.369 24.4663V25.7779C157.63 25.847 157.479 25.7365 157.561 25.9851H158.975C159.386 25.5018 159.276 25.6537 159.276 24.5629C158.796 24.1349 158.947 24.273 157.561 24.2592C157.493 24.5491 157.726 24.4248 157.369 24.4663Z" fill="white"/>
<path fill-rule="evenodd" clip-rule="evenodd" d="M46.1145 24.4663V25.7779C46.8142 25.9712 45.7852 25.985 47.5277 25.985C47.8569 25.985 47.61 25.8884 48.0353 25.7779V24.4663C47.3493 24.273 48.3783 24.2592 46.6221 24.2592C46.334 24.2592 46.5124 24.342 46.1145 24.4663Z" fill="white"/>
</g>
<defs>
<clipPath id="clip0_4_35">
<rect width="183" height="61" fill="white"/>
</clipPath>
</defs>
</svg>
