<svg width="56" height="56" viewBox="0 0 56 56" fill="none" xmlns="http://www.w3.org/2000/svg">
<path fill-rule="evenodd" clip-rule="evenodd" d="M28 56C43.464 56 56 43.464 56 28C56 12.536 43.464 0 28 0C12.536 0 0 12.536 0 28C0 43.464 12.536 56 28 56ZM40.9749 23.4749C42.3417 22.108 42.3417 19.892 40.9749 18.5251C39.608 17.1583 37.392 17.1583 36.0251 18.5251L24.5 30.0503L19.9749 25.5251C18.608 24.1583 16.392 24.1583 15.0251 25.5251C13.6583 26.892 13.6583 29.108 15.0251 30.4749L22.0251 37.4749C23.392 38.8417 25.608 38.8417 26.9749 37.4749L40.9749 23.4749Z" fill="#FECC00"/>
</svg>
