<svg width="36" height="47" viewBox="0 0 36 47" fill="none" xmlns="http://www.w3.org/2000/svg">
<path d="M8.9379 3.44052C5.49738 5.46797 3.16274 8.66274 2.24117 12.2261C1.25816 15.7281 1.68823 19.6601 3.65424 23.1006L3.71568 23.2235C5.68169 26.6026 8.87646 28.8758 12.4399 29.8588C15.9418 30.7804 19.8738 30.3503 23.3144 28.3843L23.4987 28.2614C26.8778 26.2954 29.0895 23.1621 30.0725 19.6601C30.9941 16.0967 30.564 12.1647 28.598 8.72418C26.632 5.28365 23.4372 2.94901 19.8738 2.02744C16.3104 1.04444 12.3784 1.4745 8.9379 3.44052ZM15.3889 22.3634V16.7111H9.73659V15.1752H15.3889V9.52287H16.9248V15.1752H22.5771V16.7111H16.9248V22.3634H15.3889ZM27.3693 27.217L35.2333 40.9176C35.8477 41.9006 35.9091 43.0065 35.6634 43.9895C35.4176 45.034 34.7418 45.8941 33.7588 46.4471C32.7758 47 31.6699 47.1229 30.6869 46.8771C29.7039 46.6314 28.8438 46.017 28.2908 45.0954C25.649 40.4876 23.0072 35.8797 20.3039 31.2719C17.6006 32.0706 14.7131 32.0091 12.0098 31.3333C8.07777 30.2274 4.57581 27.7085 2.36405 23.8993L2.24117 23.715C0.152281 19.9673 -0.277784 15.6667 0.76666 11.7961C1.8111 7.86405 4.3915 4.36209 8.20065 2.15032C12.0098 -0.0614441 16.3104 -0.491509 20.2425 0.552935C24.1745 1.59738 27.7379 4.17777 29.9497 7.98692C32.1 11.7961 32.5915 16.0967 31.547 20.0288C30.8098 22.732 29.3967 25.251 27.3693 27.217ZM21.8399 30.7804L29.581 44.2353C29.8882 44.8497 30.4412 45.2183 31.117 45.4026C31.6699 45.5255 32.3457 45.5255 32.8987 45.2183L33.0216 45.1569C33.6359 44.7882 34.0046 44.2353 34.1889 43.6209C34.3732 43.0065 34.3118 42.2693 33.9431 41.7163L26.202 28.2614C25.5261 28.8144 24.8503 29.3059 24.1131 29.7359C23.3758 30.166 22.5771 30.5346 21.8399 30.7804Z" fill="white"/>
</svg>
